G75*
G70*
%OFA0B0*%
%FSLAX24Y24*%
%IPPOS*%
%LPD*%
%AMOC8*
5,1,8,0,0,1.08239X$1,22.5*
%
%ADD10C,0.0000*%
%ADD11R,0.0866X0.0591*%
%ADD12R,0.0591X0.0866*%
%ADD13R,0.2953X0.0591*%
%ADD14R,0.2559X0.0394*%
D10*
X000625Y000347D02*
X015816Y000347D01*
X015847Y000349D01*
X015878Y000354D01*
X015908Y000363D01*
X015937Y000375D01*
X015964Y000390D01*
X015989Y000408D01*
X016013Y000428D01*
X016033Y000452D01*
X016051Y000477D01*
X016066Y000504D01*
X016078Y000533D01*
X016087Y000563D01*
X016092Y000594D01*
X016094Y000625D01*
X016095Y000625D02*
X016095Y002512D01*
X020032Y002512D01*
X020032Y007237D01*
X016095Y007237D01*
X016095Y009124D01*
X016094Y009124D02*
X016092Y009155D01*
X016087Y009186D01*
X016078Y009216D01*
X016066Y009245D01*
X016051Y009272D01*
X016033Y009297D01*
X016013Y009321D01*
X015989Y009341D01*
X015964Y009359D01*
X015937Y009374D01*
X015908Y009386D01*
X015878Y009395D01*
X015847Y009400D01*
X015816Y009402D01*
X000625Y009402D01*
X000594Y009400D01*
X000563Y009395D01*
X000533Y009386D01*
X000504Y009374D01*
X000477Y009359D01*
X000452Y009341D01*
X000428Y009321D01*
X000408Y009297D01*
X000390Y009272D01*
X000375Y009245D01*
X000363Y009216D01*
X000354Y009186D01*
X000349Y009155D01*
X000347Y009124D01*
X000347Y000625D01*
X000349Y000594D01*
X000354Y000563D01*
X000363Y000533D01*
X000375Y000504D01*
X000390Y000477D01*
X000408Y000452D01*
X000428Y000428D01*
X000452Y000408D01*
X000477Y000390D01*
X000504Y000375D01*
X000533Y000363D01*
X000563Y000354D01*
X000594Y000349D01*
X000625Y000347D01*
D11*
X005465Y001410D03*
X005465Y002630D03*
X011075Y002630D03*
X011075Y001410D03*
X011075Y007020D03*
X011075Y008241D03*
X005465Y008241D03*
X005465Y007020D03*
D12*
G36*
X004025Y006925D02*
X004442Y006508D01*
X003831Y005897D01*
X003414Y006314D01*
X004025Y006925D01*
G37*
G36*
X003162Y007788D02*
X003579Y007371D01*
X002968Y006760D01*
X002551Y007177D01*
X003162Y007788D01*
G37*
G36*
X008578Y006760D02*
X008161Y007177D01*
X008772Y007788D01*
X009189Y007371D01*
X008578Y006760D01*
G37*
G36*
X009441Y005897D02*
X009024Y006314D01*
X009635Y006925D01*
X010052Y006508D01*
X009441Y005897D01*
G37*
X008831Y004874D03*
X007611Y004874D03*
G36*
X006905Y002823D02*
X006488Y003240D01*
X007099Y003851D01*
X007516Y003434D01*
X006905Y002823D01*
G37*
G36*
X007768Y001960D02*
X007351Y002377D01*
X007962Y002988D01*
X008379Y002571D01*
X007768Y001960D01*
G37*
G36*
X003316Y003336D02*
X003733Y003753D01*
X004344Y003142D01*
X003927Y002725D01*
X003316Y003336D01*
G37*
G36*
X002453Y002473D02*
X002870Y002890D01*
X003481Y002279D01*
X003064Y001862D01*
X002453Y002473D01*
G37*
X002000Y004874D03*
X003221Y004874D03*
G36*
X012098Y006508D02*
X012515Y006925D01*
X013126Y006314D01*
X012709Y005897D01*
X012098Y006508D01*
G37*
G36*
X012961Y007371D02*
X013378Y007788D01*
X013989Y007177D01*
X013572Y006760D01*
X012961Y007371D01*
G37*
X013221Y004874D03*
X014441Y004874D03*
G36*
X012735Y003851D02*
X013152Y003434D01*
X012541Y002823D01*
X012124Y003240D01*
X012735Y003851D01*
G37*
G36*
X013598Y002988D02*
X014015Y002571D01*
X013404Y001960D01*
X012987Y002377D01*
X013598Y002988D01*
G37*
D13*
X018142Y003496D03*
X018142Y006252D03*
D14*
X017945Y005268D03*
X017945Y004481D03*
M02*
