%
M48
M72
T01C0.0120
%
T01
X1823Y3890
X2315Y3890
X2807Y3890
X4284Y3890
X5760Y4382
X5170Y4776
X5465Y5170
X6744Y4776
X8319Y3004
X10583Y3693
X11174Y3693
X14126Y3890
X14717Y3890
X15996Y3496
X15996Y4481
X15996Y5268
X15898Y6252
X13831Y8024
X14520Y8713
X10288Y7138
X9796Y7433
X11863Y6351
X10485Y6056
X5268Y9008
X4776Y9008
X3300Y9008
X13142Y1331
X13142Y741
M30
