G75*
G70*
%OFA0B0*%
%FSLAX24Y24*%
%IPPOS*%
%LPD*%
%AMOC8*
5,1,8,0,0,1.08239X$1,22.5*
%
%ADD10C,0.0000*%
%ADD11C,0.0020*%
%ADD12C,0.0040*%
%ADD13C,0.0060*%
%ADD14R,0.0180X0.0390*%
%ADD15R,0.0390X0.0180*%
%ADD16R,0.0295X0.0571*%
%ADD17C,0.0030*%
%ADD18R,0.0256X0.0551*%
%ADD19R,0.0571X0.0295*%
%ADD20C,0.0050*%
%ADD21R,0.0080X0.0330*%
%ADD22R,0.0551X0.0256*%
%ADD23C,0.0080*%
%ADD24R,0.0730X0.1260*%
%ADD25R,0.0730X0.0340*%
D10*
X000625Y000347D02*
X015816Y000347D01*
X015847Y000349D01*
X015878Y000354D01*
X015908Y000363D01*
X015937Y000375D01*
X015964Y000390D01*
X015989Y000408D01*
X016013Y000428D01*
X016033Y000452D01*
X016051Y000477D01*
X016066Y000504D01*
X016078Y000533D01*
X016087Y000563D01*
X016092Y000594D01*
X016094Y000625D01*
X016095Y000625D02*
X016095Y002512D01*
X020032Y002512D01*
X020032Y007237D01*
X016095Y007237D01*
X016095Y009124D01*
X016094Y009124D02*
X016092Y009155D01*
X016087Y009186D01*
X016078Y009216D01*
X016066Y009245D01*
X016051Y009272D01*
X016033Y009297D01*
X016013Y009321D01*
X015989Y009341D01*
X015964Y009359D01*
X015937Y009374D01*
X015908Y009386D01*
X015878Y009395D01*
X015847Y009400D01*
X015816Y009402D01*
X000625Y009402D01*
X000594Y009400D01*
X000563Y009395D01*
X000533Y009386D01*
X000504Y009374D01*
X000477Y009359D01*
X000452Y009341D01*
X000428Y009321D01*
X000408Y009297D01*
X000390Y009272D01*
X000375Y009245D01*
X000363Y009216D01*
X000354Y009186D01*
X000349Y009155D01*
X000347Y009124D01*
X000347Y000625D01*
X000349Y000594D01*
X000354Y000563D01*
X000363Y000533D01*
X000375Y000504D01*
X000390Y000477D01*
X000408Y000452D01*
X000428Y000428D01*
X000452Y000408D01*
X000477Y000390D01*
X000504Y000375D01*
X000533Y000363D01*
X000563Y000354D01*
X000594Y000349D01*
X000625Y000347D01*
D11*
X002343Y000728D02*
X005043Y000728D01*
X005043Y001028D02*
X002343Y001028D01*
X002305Y001029D01*
X002268Y001034D01*
X002231Y001041D01*
X002195Y001050D01*
X002159Y001063D01*
X002125Y001078D01*
X001682Y001978D02*
X001714Y002023D01*
X001750Y002065D01*
X001789Y002105D01*
X001831Y002142D01*
X001874Y002176D01*
X001921Y002207D01*
X001969Y002235D01*
X002019Y002259D01*
X002070Y002280D01*
X002123Y002297D01*
X002177Y002311D01*
X002232Y002320D01*
X002287Y002326D01*
X002343Y002328D01*
X005043Y002328D01*
X005043Y002028D02*
X002343Y002028D01*
X001682Y001978D02*
X001652Y001930D01*
X001625Y001881D01*
X001602Y001830D01*
X001583Y001777D01*
X001567Y001723D01*
X001555Y001668D01*
X001547Y001612D01*
X001543Y001556D01*
X001543Y001500D01*
X001547Y001444D01*
X001555Y001388D01*
X001567Y001333D01*
X001583Y001279D01*
X001602Y001226D01*
X001625Y001175D01*
X001652Y001126D01*
X001682Y001078D01*
X002125Y001978D02*
X002159Y001993D01*
X002195Y002006D01*
X002231Y002015D01*
X002268Y002022D01*
X002305Y002027D01*
X002343Y002028D01*
X002125Y001978D02*
X002087Y001958D01*
X002051Y001934D01*
X002017Y001907D01*
X001986Y001878D01*
X001957Y001846D01*
X001931Y001812D01*
X001908Y001775D01*
X001889Y001737D01*
X001872Y001697D01*
X001860Y001656D01*
X001850Y001614D01*
X001845Y001571D01*
X001843Y001528D01*
X001845Y001485D01*
X001850Y001442D01*
X001860Y001400D01*
X001872Y001359D01*
X001889Y001319D01*
X001908Y001281D01*
X001931Y001244D01*
X001957Y001210D01*
X001986Y001178D01*
X002017Y001149D01*
X002051Y001122D01*
X002087Y001098D01*
X002125Y001078D01*
X002343Y000728D02*
X002287Y000730D01*
X002232Y000736D01*
X002177Y000745D01*
X002123Y000759D01*
X002070Y000776D01*
X002019Y000797D01*
X001969Y000821D01*
X001921Y000849D01*
X001874Y000880D01*
X001830Y000914D01*
X001789Y000951D01*
X001750Y000991D01*
X001714Y001033D01*
X001682Y001078D01*
X003293Y001528D02*
X003443Y001528D01*
X003943Y001528D02*
X004093Y001528D01*
X005043Y002328D02*
X005099Y002326D01*
X005154Y002320D01*
X005209Y002311D01*
X005263Y002297D01*
X005316Y002280D01*
X005367Y002259D01*
X005417Y002235D01*
X005465Y002207D01*
X005512Y002176D01*
X005556Y002142D01*
X005597Y002105D01*
X005636Y002065D01*
X005672Y002023D01*
X005704Y001978D01*
X005704Y001078D02*
X005672Y001033D01*
X005636Y000991D01*
X005597Y000951D01*
X005555Y000914D01*
X005512Y000880D01*
X005465Y000849D01*
X005417Y000821D01*
X005367Y000797D01*
X005316Y000776D01*
X005263Y000759D01*
X005209Y000745D01*
X005154Y000736D01*
X005099Y000730D01*
X005043Y000728D01*
X005043Y001028D02*
X005081Y001029D01*
X005118Y001034D01*
X005155Y001041D01*
X005191Y001050D01*
X005227Y001063D01*
X005261Y001078D01*
X005261Y001978D02*
X005227Y001993D01*
X005191Y002006D01*
X005155Y002015D01*
X005118Y002022D01*
X005081Y002027D01*
X005043Y002028D01*
X005704Y001978D02*
X005734Y001930D01*
X005761Y001881D01*
X005784Y001830D01*
X005803Y001777D01*
X005819Y001723D01*
X005831Y001668D01*
X005839Y001612D01*
X005843Y001556D01*
X005843Y001500D01*
X005839Y001444D01*
X005831Y001388D01*
X005819Y001333D01*
X005803Y001279D01*
X005784Y001226D01*
X005761Y001175D01*
X005734Y001126D01*
X005704Y001078D01*
X005261Y001078D02*
X005299Y001098D01*
X005335Y001122D01*
X005369Y001149D01*
X005400Y001178D01*
X005429Y001210D01*
X005455Y001244D01*
X005478Y001281D01*
X005497Y001319D01*
X005514Y001359D01*
X005526Y001400D01*
X005536Y001442D01*
X005541Y001485D01*
X005543Y001528D01*
X005541Y001571D01*
X005536Y001614D01*
X005526Y001656D01*
X005514Y001697D01*
X005497Y001737D01*
X005478Y001775D01*
X005455Y001812D01*
X005429Y001846D01*
X005400Y001878D01*
X005369Y001907D01*
X005335Y001934D01*
X005299Y001958D01*
X005261Y001978D01*
X006907Y001248D02*
X006907Y001101D01*
X006907Y001211D02*
X007054Y001211D01*
X007054Y001248D02*
X006981Y001321D01*
X006907Y001248D01*
X007054Y001248D02*
X007054Y001101D01*
X007349Y001174D02*
X007349Y001321D01*
X007349Y001174D02*
X007422Y001101D01*
X007496Y001174D01*
X007496Y001321D01*
X007570Y001321D02*
X007717Y001321D01*
X007717Y001101D01*
X007570Y001101D01*
X007643Y001211D02*
X007717Y001211D01*
X007791Y001211D02*
X007791Y001285D01*
X007828Y001321D01*
X007938Y001321D01*
X007938Y001101D01*
X007938Y001174D02*
X007828Y001174D01*
X007791Y001211D01*
X007864Y001174D02*
X007791Y001101D01*
X008233Y001138D02*
X008233Y001285D01*
X008270Y001321D01*
X008380Y001321D01*
X008380Y001101D01*
X008270Y001101D01*
X008233Y001138D01*
X008454Y001101D02*
X008601Y001101D01*
X008601Y001321D01*
X008675Y001285D02*
X008712Y001321D01*
X008785Y001321D01*
X008822Y001285D01*
X008822Y001248D01*
X008785Y001211D01*
X008712Y001211D01*
X008675Y001174D01*
X008675Y001138D01*
X008712Y001101D01*
X008785Y001101D01*
X008822Y001138D01*
X008270Y000829D02*
X008417Y000609D01*
X008491Y000609D02*
X008491Y000719D01*
X008528Y000756D01*
X008564Y000719D01*
X008564Y000609D01*
X008638Y000609D02*
X008638Y000756D01*
X008601Y000756D01*
X008564Y000719D01*
X008712Y000719D02*
X008749Y000756D01*
X008822Y000756D01*
X008859Y000719D01*
X008859Y000646D01*
X008822Y000609D01*
X008749Y000609D01*
X008712Y000646D01*
X008712Y000719D01*
X008933Y000756D02*
X009043Y000756D01*
X009080Y000719D01*
X009080Y000646D01*
X009043Y000609D01*
X008933Y000609D01*
X009153Y000609D02*
X009190Y000609D01*
X009190Y000646D01*
X009153Y000646D01*
X009153Y000609D01*
X009264Y000646D02*
X009264Y000719D01*
X009301Y000756D01*
X009411Y000756D01*
X009411Y000829D02*
X009411Y000609D01*
X009301Y000609D01*
X009264Y000646D01*
X009485Y000609D02*
X009485Y000756D01*
X009485Y000609D02*
X009595Y000609D01*
X009632Y000646D01*
X009632Y000756D01*
X009706Y000719D02*
X009706Y000609D01*
X009706Y000719D02*
X009743Y000756D01*
X009816Y000756D01*
X009853Y000719D01*
X009927Y000756D02*
X010000Y000756D01*
X009964Y000792D02*
X009964Y000646D01*
X009927Y000609D01*
X009853Y000609D02*
X009853Y000829D01*
X010111Y000829D02*
X010111Y000866D01*
X010111Y000756D02*
X010111Y000609D01*
X010148Y000609D02*
X010074Y000609D01*
X010222Y000609D02*
X010332Y000609D01*
X010369Y000646D01*
X010369Y000719D01*
X010332Y000756D01*
X010222Y000756D01*
X010222Y000572D01*
X010259Y000536D01*
X010295Y000536D01*
X010590Y000609D02*
X010443Y000829D01*
X010664Y000829D02*
X010811Y000609D01*
X010885Y000609D02*
X010921Y000609D01*
X010921Y000646D01*
X010885Y000646D01*
X010885Y000609D01*
X010885Y000719D02*
X010921Y000719D01*
X010921Y000756D01*
X010885Y000756D01*
X010885Y000719D01*
X010995Y000719D02*
X010995Y000646D01*
X011032Y000609D01*
X011142Y000609D01*
X011142Y000536D02*
X011142Y000756D01*
X011032Y000756D01*
X010995Y000719D01*
X011216Y000756D02*
X011290Y000756D01*
X011253Y000792D02*
X011253Y000646D01*
X011216Y000609D01*
X011363Y000609D02*
X011400Y000646D01*
X011400Y000792D01*
X011437Y000756D02*
X011363Y000756D01*
X011511Y000719D02*
X011511Y000609D01*
X011511Y000719D02*
X011548Y000756D01*
X011621Y000756D01*
X011658Y000719D01*
X011658Y000829D02*
X011658Y000609D01*
X010148Y000756D02*
X010111Y000756D01*
X008196Y000829D02*
X008196Y000609D01*
X008196Y000682D02*
X008086Y000756D01*
X008012Y000756D02*
X007975Y000756D01*
X007975Y000609D01*
X008012Y000609D02*
X007938Y000609D01*
X007864Y000646D02*
X007828Y000609D01*
X007717Y000609D01*
X007717Y000756D01*
X007864Y000756D02*
X007864Y000646D01*
X007643Y000609D02*
X007496Y000829D01*
X007422Y000719D02*
X007386Y000756D01*
X007275Y000756D01*
X007312Y000682D02*
X007386Y000682D01*
X007422Y000719D01*
X007422Y000609D02*
X007312Y000609D01*
X007275Y000646D01*
X007312Y000682D01*
X007201Y000609D02*
X007128Y000609D01*
X007165Y000609D02*
X007165Y000829D01*
X007201Y000829D01*
X007054Y000719D02*
X007017Y000756D01*
X006907Y000756D01*
X006907Y000829D02*
X006907Y000609D01*
X007017Y000609D01*
X007054Y000646D01*
X007054Y000719D01*
X007975Y000829D02*
X007975Y000866D01*
X008086Y000609D02*
X008196Y000682D01*
X006962Y006120D02*
X003812Y006120D01*
X003812Y007920D01*
X006962Y007920D01*
X006962Y006120D01*
D12*
X003323Y006764D02*
X003123Y006764D01*
X003189Y006764D02*
X003256Y006865D01*
X003256Y006949D02*
X003256Y006982D01*
X003123Y006982D01*
X003123Y006949D02*
X003123Y007015D01*
X003156Y007096D02*
X003123Y007129D01*
X003123Y007229D01*
X003256Y007229D01*
X003256Y007096D02*
X003156Y007096D01*
X003323Y006982D02*
X003356Y006982D01*
X003123Y006865D02*
X003189Y006764D01*
X009449Y008453D02*
X009739Y008453D01*
X009749Y008973D02*
X009449Y008973D01*
X011603Y008568D02*
X011603Y008268D01*
X012122Y008268D02*
X012122Y008558D01*
X012685Y005713D02*
X012685Y005413D01*
X013205Y005413D02*
X013205Y005704D01*
X013670Y005713D02*
X013670Y005413D01*
X014189Y005413D02*
X014189Y005704D01*
X003646Y003363D02*
X003356Y003363D01*
X003346Y002843D02*
X003646Y002843D01*
X001865Y002843D02*
X001575Y002843D01*
X001575Y003363D02*
X001875Y003363D01*
D13*
X001543Y002478D02*
X005843Y002478D01*
X005860Y002476D01*
X005877Y002472D01*
X005893Y002465D01*
X005907Y002455D01*
X005920Y002442D01*
X005930Y002428D01*
X005937Y002412D01*
X005941Y002395D01*
X005943Y002378D01*
X005943Y001978D01*
X005943Y001678D01*
X006243Y001678D01*
X006243Y001378D01*
X005943Y001378D01*
X005943Y001678D01*
X005943Y001378D02*
X005943Y001078D01*
X005943Y000678D01*
X005941Y000661D01*
X005937Y000644D01*
X005930Y000628D01*
X005920Y000614D01*
X005907Y000601D01*
X005893Y000591D01*
X005877Y000584D01*
X005860Y000580D01*
X005843Y000578D01*
X001543Y000578D01*
X001526Y000580D01*
X001509Y000584D01*
X001493Y000591D01*
X001479Y000601D01*
X001466Y000614D01*
X001456Y000628D01*
X001449Y000644D01*
X001445Y000661D01*
X001443Y000678D01*
X001443Y001078D01*
X001443Y001978D01*
X001443Y002378D01*
X001445Y002395D01*
X001449Y002412D01*
X001456Y002428D01*
X001466Y002442D01*
X001479Y002455D01*
X001493Y002465D01*
X001509Y002472D01*
X001526Y002476D01*
X001543Y002478D01*
X001443Y001678D02*
X001143Y001678D01*
X001143Y001378D01*
X001443Y001378D01*
X003443Y001278D02*
X003443Y001528D01*
X003443Y001778D01*
X003593Y001778D02*
X003793Y001778D01*
X003793Y001278D01*
X003593Y001278D01*
X003593Y001778D01*
X003943Y001778D02*
X003943Y001528D01*
X003943Y001278D01*
X009597Y001526D02*
X012217Y001526D01*
X012357Y001666D01*
X012357Y004286D01*
X009597Y004286D01*
X009597Y001526D01*
X011916Y001826D02*
X011918Y001849D01*
X011924Y001872D01*
X011933Y001893D01*
X011946Y001913D01*
X011962Y001930D01*
X011980Y001944D01*
X012000Y001955D01*
X012022Y001963D01*
X012045Y001967D01*
X012069Y001967D01*
X012092Y001963D01*
X012114Y001955D01*
X012134Y001944D01*
X012152Y001930D01*
X012168Y001913D01*
X012181Y001893D01*
X012190Y001872D01*
X012196Y001849D01*
X012198Y001826D01*
X012196Y001803D01*
X012190Y001780D01*
X012181Y001759D01*
X012168Y001739D01*
X012152Y001722D01*
X012134Y001708D01*
X012114Y001697D01*
X012092Y001689D01*
X012069Y001685D01*
X012045Y001685D01*
X012022Y001689D01*
X012000Y001697D01*
X011980Y001708D01*
X011962Y001722D01*
X011946Y001739D01*
X011933Y001759D01*
X011924Y001780D01*
X011918Y001803D01*
X011916Y001826D01*
X014654Y001672D02*
X014977Y001672D01*
X014977Y001187D02*
X014654Y001187D01*
X014654Y000687D02*
X014977Y000687D01*
X014977Y002172D02*
X014654Y002172D01*
X014654Y002656D02*
X014977Y002656D01*
X014977Y003156D02*
X014654Y003156D01*
X014891Y004618D02*
X015331Y004618D01*
X015331Y005918D02*
X014891Y005918D01*
X011128Y008256D02*
X011128Y008579D01*
X010628Y008579D02*
X010628Y008256D01*
X007989Y008463D02*
X007666Y008463D01*
X007062Y008020D02*
X007062Y006020D01*
X003712Y006020D01*
X003712Y008020D01*
X007062Y008020D01*
X007666Y008963D02*
X007989Y008963D01*
X006312Y006470D02*
X006314Y006501D01*
X006320Y006532D01*
X006330Y006562D01*
X006343Y006590D01*
X006360Y006617D01*
X006380Y006641D01*
X006403Y006663D01*
X006428Y006681D01*
X006456Y006696D01*
X006485Y006708D01*
X006515Y006716D01*
X006546Y006720D01*
X006578Y006720D01*
X006609Y006716D01*
X006639Y006708D01*
X006668Y006696D01*
X006696Y006681D01*
X006721Y006663D01*
X006744Y006641D01*
X006764Y006617D01*
X006781Y006590D01*
X006794Y006562D01*
X006804Y006532D01*
X006810Y006501D01*
X006812Y006470D01*
X006810Y006439D01*
X006804Y006408D01*
X006794Y006378D01*
X006781Y006350D01*
X006764Y006323D01*
X006744Y006299D01*
X006721Y006277D01*
X006696Y006259D01*
X006668Y006244D01*
X006639Y006232D01*
X006609Y006224D01*
X006578Y006220D01*
X006546Y006220D01*
X006515Y006224D01*
X006485Y006232D01*
X006456Y006244D01*
X006428Y006259D01*
X006403Y006277D01*
X006380Y006299D01*
X006360Y006323D01*
X006343Y006350D01*
X006330Y006378D01*
X006320Y006408D01*
X006314Y006439D01*
X006312Y006470D01*
D14*
X009874Y004501D03*
X010189Y004501D03*
X010504Y004501D03*
X010819Y004501D03*
X011134Y004501D03*
X011449Y004501D03*
X011764Y004501D03*
X012079Y004501D03*
X012079Y001311D03*
X011764Y001311D03*
X011449Y001311D03*
X011134Y001311D03*
X010819Y001311D03*
X010504Y001311D03*
X010189Y001311D03*
X009874Y001311D03*
D15*
X009382Y001804D03*
X009382Y002119D03*
X009382Y002433D03*
X009382Y002748D03*
X009382Y003063D03*
X009382Y003378D03*
X009382Y003693D03*
X009382Y004008D03*
X012572Y004008D03*
X012572Y003693D03*
X012572Y003378D03*
X012572Y003063D03*
X012572Y002748D03*
X012572Y002433D03*
X012572Y002119D03*
X012572Y001804D03*
D16*
X003784Y003102D03*
X003214Y003102D03*
X002007Y003103D03*
X001437Y003103D03*
X009311Y008713D03*
X009881Y008713D03*
D17*
X009865Y008108D02*
X009742Y008108D01*
X009680Y008046D01*
X009558Y008108D02*
X009312Y008108D01*
X009312Y008046D01*
X009558Y007799D01*
X009558Y007737D01*
X009680Y007799D02*
X009742Y007737D01*
X009865Y007737D01*
X009927Y007799D01*
X009927Y008046D01*
X009865Y008108D01*
X010875Y007425D02*
X010875Y007179D01*
X011061Y007364D01*
X010690Y007364D01*
X010690Y007057D02*
X010814Y006934D01*
X010814Y006995D02*
X010814Y006810D01*
X010690Y006810D02*
X011061Y006810D01*
X011061Y006995D01*
X010999Y007057D01*
X010875Y007057D01*
X010814Y006995D01*
X011674Y006995D02*
X011674Y006872D01*
X011736Y006810D01*
X011983Y006810D01*
X012045Y006872D01*
X012045Y006995D01*
X011983Y007057D01*
X011983Y007179D02*
X012045Y007240D01*
X012045Y007364D01*
X011983Y007425D01*
X011921Y007425D01*
X011860Y007364D01*
X011798Y007425D01*
X011736Y007425D01*
X011674Y007364D01*
X011674Y007240D01*
X011736Y007179D01*
X011736Y007057D02*
X011674Y006995D01*
X011860Y007302D02*
X011860Y007364D01*
X012253Y005752D02*
X012253Y005505D01*
X012438Y005691D01*
X012068Y005691D01*
X012130Y005384D02*
X012068Y005322D01*
X012068Y005199D01*
X012130Y005137D01*
X012377Y005137D01*
X012438Y005199D01*
X012438Y005322D01*
X012377Y005384D01*
X013840Y004670D02*
X013840Y004423D01*
X014087Y004670D01*
X014148Y004670D01*
X014210Y004608D01*
X014210Y004484D01*
X014148Y004423D01*
X014148Y004301D02*
X014210Y004240D01*
X014210Y004116D01*
X014148Y004054D01*
X013902Y004054D01*
X013840Y004116D01*
X013840Y004240D01*
X013902Y004301D01*
X013816Y003900D02*
X013623Y003900D01*
X013719Y003900D02*
X013719Y003610D01*
X013521Y003755D02*
X013328Y003755D01*
X013376Y003610D02*
X013376Y003900D01*
X013521Y003755D01*
X015021Y003747D02*
X015021Y003624D01*
X015083Y003562D01*
X015330Y003562D01*
X015391Y003624D01*
X015391Y003747D01*
X015330Y003809D01*
X015268Y003931D02*
X015391Y004054D01*
X015021Y004054D01*
X015021Y003931D02*
X015021Y004177D01*
X015083Y003809D02*
X015021Y003747D01*
X015618Y003241D02*
X015618Y002994D01*
X015618Y002873D02*
X015741Y002749D01*
X015741Y002811D02*
X015741Y002626D01*
X015618Y002626D02*
X015988Y002626D01*
X015988Y002811D01*
X015926Y002873D01*
X015803Y002873D01*
X015741Y002811D01*
X015865Y002994D02*
X015988Y003117D01*
X015618Y003117D01*
X014136Y002819D02*
X014136Y002625D01*
X013991Y002625D01*
X014040Y002722D01*
X014040Y002770D01*
X013991Y002819D01*
X013894Y002819D01*
X013846Y002770D01*
X013846Y002673D01*
X013894Y002625D01*
X014136Y002524D02*
X014136Y002330D01*
X014136Y002427D02*
X013846Y002427D01*
X013815Y001513D02*
X013621Y001513D01*
X013718Y001513D02*
X013718Y001223D01*
X013520Y001271D02*
X013472Y001223D01*
X013375Y001223D01*
X013327Y001271D01*
X013327Y001320D01*
X013375Y001368D01*
X013520Y001368D01*
X013520Y001271D01*
X013520Y001368D02*
X013423Y001465D01*
X013327Y001513D01*
X015618Y001641D02*
X015988Y001641D01*
X015988Y001827D01*
X015926Y001888D01*
X015803Y001888D01*
X015741Y001827D01*
X015741Y001641D01*
X015741Y001765D02*
X015618Y001888D01*
X015679Y002010D02*
X015618Y002071D01*
X015618Y002195D01*
X015679Y002257D01*
X015741Y002257D01*
X015803Y002195D01*
X015803Y002133D01*
X015803Y002195D02*
X015865Y002257D01*
X015926Y002257D01*
X015988Y002195D01*
X015988Y002071D01*
X015926Y002010D01*
X015926Y001272D02*
X015865Y001272D01*
X015618Y001025D01*
X015618Y001272D01*
X015926Y001272D02*
X015988Y001211D01*
X015988Y001087D01*
X015926Y001025D01*
X015926Y000904D02*
X015803Y000904D01*
X015741Y000842D01*
X015741Y000657D01*
X015618Y000657D02*
X015988Y000657D01*
X015988Y000842D01*
X015926Y000904D01*
X015741Y000781D02*
X015618Y000904D01*
X008404Y004397D02*
X008404Y004688D01*
X008308Y004688D02*
X008501Y004688D01*
X008206Y004639D02*
X008158Y004688D01*
X008061Y004688D01*
X008013Y004639D01*
X008013Y004591D01*
X008206Y004397D01*
X008013Y004397D01*
X008997Y005086D02*
X009191Y005086D01*
X009094Y005086D02*
X009094Y005377D01*
X009191Y005280D01*
X009292Y005377D02*
X009485Y005377D01*
X009389Y005377D02*
X009389Y005086D01*
X008404Y006071D02*
X008404Y006361D01*
X008308Y006361D02*
X008501Y006361D01*
X008206Y006312D02*
X008158Y006361D01*
X008061Y006361D01*
X008013Y006312D01*
X008013Y006264D01*
X008061Y006216D01*
X008013Y006167D01*
X008013Y006119D01*
X008061Y006071D01*
X008158Y006071D01*
X008206Y006119D01*
X008110Y006216D02*
X008061Y006216D01*
X008155Y007737D02*
X008155Y008108D01*
X007970Y008108D01*
X007908Y008046D01*
X007908Y007923D01*
X007970Y007861D01*
X008155Y007861D01*
X008032Y007861D02*
X007908Y007737D01*
X007787Y007799D02*
X007725Y007737D01*
X007602Y007737D01*
X007540Y007799D01*
X007540Y007923D01*
X007602Y007984D01*
X007663Y007984D01*
X007787Y007923D01*
X007787Y008108D01*
X007540Y008108D01*
X003763Y003875D02*
X003639Y003875D01*
X003578Y003814D01*
X003456Y003875D02*
X003456Y003690D01*
X003333Y003752D01*
X003271Y003752D01*
X003209Y003690D01*
X003209Y003567D01*
X003271Y003505D01*
X003394Y003505D01*
X003456Y003567D01*
X003578Y003567D02*
X003639Y003505D01*
X003763Y003505D01*
X003824Y003567D01*
X003824Y003814D01*
X003763Y003875D01*
X003456Y003875D02*
X003209Y003875D01*
X002053Y003814D02*
X002053Y003567D01*
X001991Y003505D01*
X001868Y003505D01*
X001806Y003567D01*
X001684Y003567D02*
X001623Y003505D01*
X001499Y003505D01*
X001438Y003567D01*
X001438Y003629D01*
X001499Y003690D01*
X001684Y003690D01*
X001684Y003567D01*
X001684Y003690D02*
X001561Y003814D01*
X001438Y003875D01*
X001806Y003814D02*
X001868Y003875D01*
X001991Y003875D01*
X002053Y003814D01*
D18*
X007535Y008712D03*
X008115Y008712D03*
X014527Y002906D03*
X015107Y002906D03*
X015107Y001922D03*
X014527Y001922D03*
X014523Y000937D03*
X015103Y000937D03*
D19*
X013929Y005276D03*
X013929Y005846D03*
X012945Y005846D03*
X012945Y005276D03*
X011862Y008130D03*
X011862Y008700D03*
D20*
X002119Y008851D02*
X002119Y007000D01*
X000741Y007000D01*
X000741Y008851D01*
X002119Y008851D01*
D21*
X004012Y008205D03*
X004262Y008205D03*
X004512Y008205D03*
X004762Y008205D03*
X005012Y008205D03*
X005262Y008205D03*
X005512Y008205D03*
X005762Y008205D03*
X006012Y008205D03*
X006262Y008205D03*
X006512Y008205D03*
X006762Y008205D03*
X006762Y005835D03*
X006512Y005835D03*
X006262Y005835D03*
X006012Y005835D03*
X005762Y005835D03*
X005512Y005835D03*
X005262Y005835D03*
X005012Y005835D03*
X004762Y005835D03*
X004512Y005835D03*
X004262Y005835D03*
X004012Y005835D03*
D22*
X010879Y008126D03*
X010879Y008706D03*
D23*
X013426Y009117D02*
X013426Y006537D01*
X014826Y006537D01*
X014826Y009117D01*
X013426Y009117D01*
X014796Y005872D02*
X014796Y004664D01*
X015425Y004664D01*
X015425Y005872D01*
X014796Y005872D01*
X015111Y005764D02*
X015111Y005544D01*
X015008Y005650D02*
X015229Y005650D01*
D24*
X013051Y007827D03*
X013051Y007827D03*
D25*
X015201Y007827D03*
X015201Y007827D03*
X015201Y008737D03*
X015201Y008737D03*
X015201Y006917D03*
X015201Y006917D03*
M02*
