G75*
G70*
%OFA0B0*%
%FSLAX24Y24*%
%IPPOS*%
%LPD*%
%AMOC8*
5,1,8,0,0,1.08239X$1,22.5*
%
%ADD10C,0.0000*%
%ADD11R,0.0934X0.0033*%
%ADD12R,0.0933X0.0033*%
%ADD13R,0.1334X0.0033*%
%ADD14R,0.1333X0.0033*%
%ADD15R,0.1633X0.0033*%
%ADD16R,0.1900X0.0033*%
%ADD17R,0.2134X0.0033*%
%ADD18R,0.2167X0.0033*%
%ADD19R,0.2334X0.0033*%
%ADD20R,0.2367X0.0033*%
%ADD21R,0.2600X0.0033*%
%ADD22R,0.2633X0.0033*%
%ADD23R,0.2767X0.0033*%
%ADD24R,0.2800X0.0033*%
%ADD25R,0.2934X0.0033*%
%ADD26R,0.2967X0.0033*%
%ADD27R,0.3100X0.0033*%
%ADD28R,0.3134X0.0033*%
%ADD29R,0.3233X0.0033*%
%ADD30R,0.3266X0.0033*%
%ADD31R,0.3367X0.0033*%
%ADD32R,0.3400X0.0033*%
%ADD33R,0.3567X0.0033*%
%ADD34R,0.3600X0.0033*%
%ADD35R,0.3666X0.0033*%
%ADD36R,0.3734X0.0033*%
%ADD37R,0.3800X0.0033*%
%ADD38R,0.3833X0.0033*%
%ADD39R,0.3900X0.0033*%
%ADD40R,0.3934X0.0033*%
%ADD41R,0.3967X0.0033*%
%ADD42R,0.4033X0.0033*%
%ADD43R,0.4134X0.0033*%
%ADD44R,0.4200X0.0033*%
%ADD45R,0.4233X0.0033*%
%ADD46R,0.4300X0.0033*%
%ADD47R,0.4300X0.0033*%
%ADD48R,0.4433X0.0033*%
%ADD49R,0.4333X0.0033*%
%ADD50R,0.4500X0.0033*%
%ADD51R,0.4334X0.0033*%
%ADD52R,0.4600X0.0033*%
%ADD53R,0.4366X0.0033*%
%ADD54R,0.4700X0.0033*%
%ADD55R,0.4367X0.0033*%
%ADD56R,0.4800X0.0033*%
%ADD57R,0.4433X0.0033*%
%ADD58R,0.4866X0.0033*%
%ADD59R,0.4434X0.0033*%
%ADD60R,0.4934X0.0033*%
%ADD61R,0.5000X0.0033*%
%ADD62R,0.5100X0.0033*%
%ADD63R,0.4467X0.0033*%
%ADD64R,0.5200X0.0033*%
%ADD65R,0.4500X0.0033*%
%ADD66R,0.5266X0.0033*%
%ADD67R,0.5334X0.0033*%
%ADD68R,0.5400X0.0033*%
%ADD69R,0.4533X0.0033*%
%ADD70R,0.5433X0.0033*%
%ADD71R,0.4533X0.0033*%
%ADD72R,0.5500X0.0033*%
%ADD73R,0.4534X0.0033*%
%ADD74R,0.5600X0.0033*%
%ADD75R,0.4566X0.0033*%
%ADD76R,0.5666X0.0033*%
%ADD77R,0.4567X0.0033*%
%ADD78R,0.5734X0.0033*%
%ADD79R,0.5800X0.0033*%
%ADD80R,0.5833X0.0033*%
%ADD81R,0.4600X0.0033*%
%ADD82R,0.5866X0.0033*%
%ADD83R,0.5967X0.0033*%
%ADD84R,0.6000X0.0033*%
%ADD85R,0.4633X0.0033*%
%ADD86R,0.6066X0.0033*%
%ADD87R,0.4667X0.0033*%
%ADD88R,0.6100X0.0033*%
%ADD89R,0.6134X0.0033*%
%ADD90R,0.4667X0.0033*%
%ADD91R,0.6200X0.0033*%
%ADD92R,0.4666X0.0033*%
%ADD93R,0.6266X0.0033*%
%ADD94R,0.6300X0.0033*%
%ADD95R,0.6334X0.0033*%
%ADD96R,0.6400X0.0033*%
%ADD97R,0.6400X0.0033*%
%ADD98R,0.4666X0.0033*%
%ADD99R,0.6466X0.0033*%
%ADD100R,0.6534X0.0033*%
%ADD101R,0.6534X0.0033*%
%ADD102R,0.4700X0.0033*%
%ADD103R,0.6600X0.0033*%
%ADD104R,0.4733X0.0033*%
%ADD105R,0.6633X0.0033*%
%ADD106R,0.6666X0.0033*%
%ADD107R,0.4734X0.0033*%
%ADD108R,0.6734X0.0033*%
%ADD109R,0.6800X0.0033*%
%ADD110R,0.4766X0.0033*%
%ADD111R,0.6800X0.0033*%
%ADD112R,0.4766X0.0033*%
%ADD113R,0.6833X0.0033*%
%ADD114R,0.4767X0.0033*%
%ADD115R,0.6866X0.0033*%
%ADD116R,0.6900X0.0033*%
%ADD117R,0.4767X0.0033*%
%ADD118R,0.3134X0.0033*%
%ADD119R,0.0900X0.0033*%
%ADD120R,0.3133X0.0033*%
%ADD121R,0.3000X0.0033*%
%ADD122R,0.0767X0.0033*%
%ADD123R,0.2967X0.0033*%
%ADD124R,0.2933X0.0033*%
%ADD125R,0.0600X0.0033*%
%ADD126R,0.2867X0.0033*%
%ADD127R,0.0533X0.0033*%
%ADD128R,0.2833X0.0033*%
%ADD129R,0.0433X0.0033*%
%ADD130R,0.2766X0.0033*%
%ADD131R,0.0333X0.0033*%
%ADD132R,0.2734X0.0033*%
%ADD133R,0.2700X0.0033*%
%ADD134R,0.0233X0.0033*%
%ADD135R,0.2634X0.0033*%
%ADD136R,0.2667X0.0033*%
%ADD137R,0.0200X0.0033*%
%ADD138R,0.2633X0.0033*%
%ADD139R,0.0133X0.0033*%
%ADD140R,0.2600X0.0033*%
%ADD141R,0.0067X0.0033*%
%ADD142R,0.2566X0.0033*%
%ADD143R,0.2567X0.0033*%
%ADD144R,0.2533X0.0033*%
%ADD145R,0.2533X0.0033*%
%ADD146R,0.2500X0.0033*%
%ADD147R,0.2534X0.0033*%
%ADD148R,0.2500X0.0033*%
%ADD149R,0.2467X0.0033*%
%ADD150R,0.2466X0.0033*%
%ADD151R,0.2467X0.0033*%
%ADD152R,0.2433X0.0033*%
%ADD153R,0.2434X0.0033*%
%ADD154R,0.2400X0.0033*%
%ADD155R,0.2400X0.0033*%
%ADD156R,0.2366X0.0033*%
%ADD157R,0.2366X0.0033*%
%ADD158R,0.2333X0.0033*%
%ADD159R,0.2333X0.0033*%
%ADD160R,0.2334X0.0033*%
%ADD161R,0.2300X0.0033*%
%ADD162R,0.2300X0.0033*%
%ADD163R,0.2267X0.0033*%
%ADD164R,0.2267X0.0033*%
%ADD165R,0.2233X0.0033*%
%ADD166R,0.2234X0.0033*%
%ADD167R,0.2266X0.0033*%
%ADD168R,0.2233X0.0033*%
%ADD169R,0.2200X0.0033*%
%ADD170R,0.2200X0.0033*%
%ADD171R,0.2166X0.0033*%
%ADD172R,0.2167X0.0033*%
%ADD173R,0.2166X0.0033*%
%ADD174R,0.2133X0.0033*%
%ADD175R,0.2134X0.0033*%
%ADD176R,0.2133X0.0033*%
%ADD177R,0.2100X0.0033*%
%ADD178R,0.2100X0.0033*%
%ADD179R,0.0066X0.0033*%
%ADD180R,0.0133X0.0033*%
%ADD181R,0.2534X0.0033*%
%ADD182R,0.0166X0.0033*%
%ADD183R,0.0200X0.0033*%
%ADD184R,0.2566X0.0033*%
%ADD185R,0.0266X0.0033*%
%ADD186R,0.0367X0.0033*%
%ADD187R,0.0434X0.0033*%
%ADD188R,0.2733X0.0033*%
%ADD189R,0.0534X0.0033*%
%ADD190R,0.0633X0.0033*%
%ADD191R,0.2834X0.0033*%
%ADD192R,0.0700X0.0033*%
%ADD193R,0.2900X0.0033*%
%ADD194R,0.0833X0.0033*%
%ADD195R,0.2966X0.0033*%
%ADD196R,0.1000X0.0033*%
%ADD197R,0.3100X0.0033*%
%ADD198R,0.4800X0.0033*%
%ADD199R,0.6867X0.0033*%
%ADD200R,0.6834X0.0033*%
%ADD201R,0.6733X0.0033*%
%ADD202R,0.6667X0.0033*%
%ADD203R,0.6567X0.0033*%
%ADD204R,0.4734X0.0033*%
%ADD205R,0.6533X0.0033*%
%ADD206R,0.6500X0.0033*%
%ADD207R,0.6433X0.0033*%
%ADD208R,0.6367X0.0033*%
%ADD209R,0.6300X0.0033*%
%ADD210R,0.6233X0.0033*%
%ADD211R,0.6167X0.0033*%
%ADD212R,0.6133X0.0033*%
%ADD213R,0.6033X0.0033*%
%ADD214R,0.4634X0.0033*%
%ADD215R,0.4633X0.0033*%
%ADD216R,0.5900X0.0033*%
%ADD217R,0.5866X0.0033*%
%ADD218R,0.5833X0.0033*%
%ADD219R,0.5767X0.0033*%
%ADD220R,0.5700X0.0033*%
%ADD221R,0.5633X0.0033*%
%ADD222R,0.5534X0.0033*%
%ADD223R,0.5500X0.0033*%
%ADD224R,0.5466X0.0033*%
%ADD225R,0.5334X0.0033*%
%ADD226R,0.5266X0.0033*%
%ADD227R,0.4466X0.0033*%
%ADD228R,0.5167X0.0033*%
%ADD229R,0.4467X0.0033*%
%ADD230R,0.5066X0.0033*%
%ADD231R,0.5000X0.0033*%
%ADD232R,0.4866X0.0033*%
%ADD233R,0.4333X0.0033*%
%ADD234R,0.4267X0.0033*%
%ADD235R,0.4233X0.0033*%
%ADD236R,0.4000X0.0033*%
%ADD237R,0.4067X0.0033*%
%ADD238R,0.3933X0.0033*%
%ADD239R,0.3967X0.0033*%
%ADD240R,0.3900X0.0033*%
%ADD241R,0.3700X0.0033*%
%ADD242R,0.3767X0.0033*%
%ADD243R,0.3633X0.0033*%
%ADD244R,0.3467X0.0033*%
%ADD245R,0.3300X0.0033*%
%ADD246R,0.3133X0.0033*%
%ADD247R,0.3167X0.0033*%
%ADD248R,0.3033X0.0033*%
%ADD249R,0.2700X0.0033*%
%ADD250R,0.2433X0.0033*%
%ADD251R,0.1967X0.0033*%
%ADD252R,0.1700X0.0033*%
%ADD253R,0.1400X0.0033*%
%ADD254R,0.0967X0.0033*%
D10*
X000625Y000347D02*
X015816Y000347D01*
X015847Y000349D01*
X015878Y000354D01*
X015908Y000363D01*
X015937Y000375D01*
X015964Y000390D01*
X015989Y000408D01*
X016013Y000428D01*
X016033Y000452D01*
X016051Y000477D01*
X016066Y000504D01*
X016078Y000533D01*
X016087Y000563D01*
X016092Y000594D01*
X016094Y000625D01*
X016095Y000625D02*
X016095Y002512D01*
X020032Y002512D01*
X020032Y007237D01*
X016095Y007237D01*
X016095Y009124D01*
X016094Y009124D02*
X016092Y009155D01*
X016087Y009186D01*
X016078Y009216D01*
X016066Y009245D01*
X016051Y009272D01*
X016033Y009297D01*
X016013Y009321D01*
X015989Y009341D01*
X015964Y009359D01*
X015937Y009374D01*
X015908Y009386D01*
X015878Y009395D01*
X015847Y009400D01*
X015816Y009402D01*
X000625Y009402D01*
X000594Y009400D01*
X000563Y009395D01*
X000533Y009386D01*
X000504Y009374D01*
X000477Y009359D01*
X000452Y009341D01*
X000428Y009321D01*
X000408Y009297D01*
X000390Y009272D01*
X000375Y009245D01*
X000363Y009216D01*
X000354Y009186D01*
X000349Y009155D01*
X000347Y009124D01*
X000347Y000625D01*
X000349Y000594D01*
X000354Y000563D01*
X000363Y000533D01*
X000375Y000504D01*
X000390Y000477D01*
X000408Y000452D01*
X000428Y000428D01*
X000452Y000408D01*
X000477Y000390D01*
X000504Y000375D01*
X000533Y000363D01*
X000563Y000354D01*
X000594Y000349D01*
X000625Y000347D01*
D11*
X005404Y000972D03*
X005404Y008672D03*
D12*
X011038Y000972D03*
D13*
X005404Y001005D03*
X005404Y008639D03*
D14*
X011038Y001005D03*
D15*
X011021Y001039D03*
X005421Y001039D03*
X005421Y008605D03*
D16*
X005421Y008572D03*
X005421Y001072D03*
X011021Y001072D03*
D17*
X005404Y001105D03*
X008204Y004539D03*
X008204Y004605D03*
X008204Y004639D03*
X008304Y005239D03*
X013804Y005305D03*
X013804Y005339D03*
X013804Y004339D03*
X005404Y008539D03*
X002604Y005039D03*
X002604Y005005D03*
X002604Y004939D03*
X002604Y004905D03*
X002604Y004839D03*
X002604Y004805D03*
X002604Y004739D03*
X002604Y004705D03*
X002604Y004639D03*
X002604Y004605D03*
D18*
X002621Y004539D03*
X002621Y004505D03*
X002621Y004439D03*
X002621Y004405D03*
X002621Y005105D03*
X002621Y005139D03*
X002621Y005205D03*
X002621Y005239D03*
X008121Y004239D03*
X008121Y004205D03*
X008188Y004439D03*
X008188Y004505D03*
X008288Y005205D03*
X008321Y005305D03*
X008321Y005339D03*
X008321Y005405D03*
X013788Y005405D03*
X013821Y005239D03*
X013821Y005205D03*
X013821Y004439D03*
X013821Y004405D03*
X013788Y004305D03*
X013788Y004239D03*
X011021Y001105D03*
D19*
X005404Y001139D03*
D20*
X002888Y003705D03*
X002888Y005939D03*
X007921Y003739D03*
X007921Y003705D03*
X008588Y006005D03*
X013521Y006005D03*
X013521Y003639D03*
X011021Y001139D03*
X005421Y008505D03*
D21*
X005404Y001172D03*
D22*
X003121Y003372D03*
X007688Y003372D03*
X011021Y001172D03*
X013321Y003372D03*
X013321Y006272D03*
X005421Y008472D03*
X003121Y006272D03*
D23*
X008921Y006405D03*
X005421Y001205D03*
D24*
X011004Y001205D03*
X013171Y003239D03*
X013171Y006405D03*
X005437Y008439D03*
X003271Y006405D03*
D25*
X005404Y001239D03*
D26*
X011021Y001239D03*
X013021Y003139D03*
X013021Y006505D03*
X005421Y008405D03*
D27*
X005421Y001272D03*
D28*
X011004Y001272D03*
D29*
X005421Y001305D03*
X005421Y008339D03*
D30*
X011004Y001305D03*
D31*
X005421Y001339D03*
D32*
X011004Y001339D03*
X005437Y008305D03*
D33*
X005421Y001372D03*
D34*
X011004Y001372D03*
X005437Y008272D03*
D35*
X005404Y001405D03*
D36*
X011004Y001405D03*
D37*
X005404Y001439D03*
D38*
X010988Y001439D03*
X005421Y008205D03*
D39*
X005421Y001472D03*
D40*
X011004Y001472D03*
D41*
X005421Y001505D03*
D42*
X010988Y001505D03*
D43*
X005404Y001539D03*
D44*
X011004Y001539D03*
X005437Y008105D03*
D45*
X005421Y001572D03*
D46*
X010987Y001572D03*
X010987Y008072D03*
D47*
X005421Y008039D03*
X005421Y001605D03*
X011021Y001605D03*
D48*
X011288Y001839D03*
X005421Y001639D03*
X005188Y007839D03*
D49*
X005371Y008005D03*
X011071Y001639D03*
D50*
X011421Y001972D03*
X005421Y001672D03*
X005021Y007672D03*
D51*
X011104Y001672D03*
D52*
X011604Y002205D03*
X011637Y002239D03*
X011671Y002305D03*
X011704Y002339D03*
X005404Y001705D03*
X004904Y007505D03*
D53*
X005254Y007905D03*
X011154Y001705D03*
D54*
X011887Y002639D03*
X011921Y002705D03*
X011954Y002739D03*
X005421Y001739D03*
X004587Y007039D03*
X004621Y007105D03*
X004654Y007139D03*
X004687Y007205D03*
D55*
X005288Y007939D03*
X010988Y008039D03*
X011188Y001739D03*
D56*
X005404Y001772D03*
X004337Y006572D03*
X004404Y006672D03*
D57*
X005221Y007872D03*
X011321Y001872D03*
X011221Y001772D03*
D58*
X005404Y001805D03*
D59*
X011254Y001805D03*
X005154Y007805D03*
D60*
X011004Y007839D03*
X005404Y001839D03*
D61*
X005404Y001872D03*
D62*
X005421Y001905D03*
D63*
X011338Y001905D03*
D64*
X005404Y001939D03*
D65*
X011387Y001939D03*
X011454Y002005D03*
X005054Y007705D03*
X010987Y008005D03*
D66*
X005404Y001972D03*
D67*
X005404Y002005D03*
D68*
X005404Y002039D03*
X011004Y007639D03*
D69*
X004971Y007605D03*
X011471Y002039D03*
D70*
X005421Y002072D03*
D71*
X011471Y002072D03*
X004971Y007572D03*
D72*
X005421Y002105D03*
D73*
X011504Y002105D03*
X005004Y007639D03*
D74*
X005404Y002139D03*
D75*
X011554Y002139D03*
X004954Y007539D03*
D76*
X005404Y002172D03*
D77*
X011588Y002172D03*
X010988Y007972D03*
D78*
X005404Y002205D03*
D79*
X005404Y002239D03*
D80*
X005421Y002272D03*
D81*
X011637Y002272D03*
X004804Y007372D03*
X004871Y007472D03*
D82*
X005404Y002305D03*
D83*
X005421Y002339D03*
X011021Y007305D03*
D84*
X005404Y002372D03*
D85*
X011721Y002372D03*
D86*
X005404Y002405D03*
D87*
X011738Y002405D03*
X011771Y002439D03*
X011838Y002539D03*
X011871Y002605D03*
D88*
X005387Y002439D03*
X011021Y007239D03*
D89*
X005404Y002472D03*
D90*
X011771Y002472D03*
X011838Y002572D03*
X004671Y007172D03*
X004738Y007272D03*
D91*
X005404Y002505D03*
D92*
X011804Y002505D03*
X004704Y007239D03*
X011004Y007939D03*
D93*
X005404Y002539D03*
D94*
X005421Y002572D03*
X011021Y007072D03*
D95*
X005404Y002605D03*
D96*
X005404Y002639D03*
X011037Y007005D03*
D97*
X005404Y002672D03*
D98*
X011904Y002672D03*
D99*
X005404Y002705D03*
D100*
X005404Y002739D03*
D101*
X005404Y002772D03*
D102*
X011954Y002772D03*
X004554Y006972D03*
X004621Y007072D03*
D103*
X011037Y006839D03*
X005404Y002805D03*
D104*
X011971Y002805D03*
X011971Y002839D03*
X012038Y002905D03*
X004471Y006805D03*
X004471Y006839D03*
X004538Y006939D03*
X004571Y007005D03*
D105*
X011021Y006805D03*
X005421Y002839D03*
D106*
X005404Y002872D03*
D107*
X012004Y002872D03*
X004504Y006872D03*
D108*
X005404Y002905D03*
D109*
X005404Y002939D03*
X011037Y006705D03*
D110*
X012054Y002939D03*
D111*
X005404Y002972D03*
X011037Y006672D03*
D112*
X004454Y006772D03*
X012054Y002972D03*
D113*
X005388Y003005D03*
D114*
X012088Y003005D03*
X012088Y003039D03*
X004421Y006739D03*
X010988Y007905D03*
D115*
X005404Y003039D03*
D116*
X005387Y003072D03*
X011054Y006572D03*
D117*
X012121Y003072D03*
D118*
X007304Y003105D03*
X003504Y003105D03*
X003504Y006539D03*
D119*
X010187Y003105D03*
D120*
X012938Y003105D03*
D121*
X007371Y003139D03*
X003437Y003139D03*
X003437Y006505D03*
D122*
X010121Y003139D03*
D123*
X003388Y003172D03*
D124*
X007438Y003172D03*
X013071Y003172D03*
X003371Y006472D03*
D125*
X010071Y003172D03*
D126*
X007471Y003205D03*
X003338Y003205D03*
X003338Y006439D03*
X010971Y008439D03*
D127*
X010038Y003205D03*
D128*
X007521Y003239D03*
X003288Y003239D03*
X013121Y003205D03*
X013121Y006439D03*
D129*
X009988Y003239D03*
D130*
X007554Y003272D03*
X003254Y003272D03*
X003254Y006372D03*
D131*
X009971Y003272D03*
D132*
X013204Y003272D03*
X013204Y006372D03*
D133*
X013254Y003305D03*
X007621Y003305D03*
X003187Y003305D03*
X003187Y006339D03*
D134*
X009921Y003305D03*
D135*
X003154Y003339D03*
X003154Y006305D03*
D136*
X007638Y003339D03*
X013271Y006339D03*
D137*
X009904Y003339D03*
D138*
X013288Y003339D03*
X013288Y006305D03*
X008821Y006339D03*
X008788Y006305D03*
D139*
X009871Y003372D03*
D140*
X007704Y003405D03*
X003104Y003405D03*
X003104Y006239D03*
D141*
X009838Y003405D03*
D142*
X013354Y003405D03*
X013354Y006239D03*
D143*
X007721Y003439D03*
X003088Y003439D03*
D144*
X003071Y006205D03*
X008738Y006239D03*
X013371Y006205D03*
X013371Y003439D03*
D145*
X003038Y003472D03*
X003038Y006172D03*
D146*
X007754Y003472D03*
X013421Y006172D03*
D147*
X013404Y003472D03*
D148*
X007787Y003505D03*
X003021Y003505D03*
X002987Y003539D03*
X002987Y006105D03*
X003021Y006139D03*
D149*
X013438Y006139D03*
X013471Y006105D03*
X013471Y003539D03*
X013438Y003505D03*
D150*
X007804Y003539D03*
D151*
X002971Y003572D03*
X002971Y006072D03*
X008671Y006172D03*
D152*
X013488Y006072D03*
X013488Y003572D03*
X007821Y003572D03*
D153*
X007854Y003605D03*
X007854Y003639D03*
X002954Y003605D03*
X002954Y006039D03*
X008654Y006139D03*
D154*
X008637Y006105D03*
X008604Y006039D03*
X013504Y006039D03*
X013504Y003605D03*
X002937Y003639D03*
X002937Y006005D03*
D155*
X002904Y005972D03*
X002904Y003672D03*
X007904Y003672D03*
X008604Y006072D03*
D156*
X008554Y005972D03*
X013554Y005972D03*
X013554Y003672D03*
X002854Y003772D03*
D157*
X013554Y003705D03*
D158*
X013571Y003739D03*
X013571Y005905D03*
X013571Y005939D03*
X008538Y005939D03*
X007971Y003805D03*
X002871Y003739D03*
X002838Y003805D03*
X002838Y005839D03*
X002871Y005905D03*
D159*
X002838Y005872D03*
X007938Y003772D03*
D160*
X013604Y003772D03*
X013604Y005872D03*
D161*
X013621Y005839D03*
X013621Y003839D03*
X013621Y003805D03*
X008521Y005905D03*
X008487Y005839D03*
X008021Y003939D03*
X008021Y003905D03*
X007987Y003839D03*
X002821Y003839D03*
X002821Y005805D03*
D162*
X002787Y005772D03*
X002787Y003872D03*
X007987Y003872D03*
X008454Y005772D03*
X008487Y005872D03*
X013654Y003872D03*
D163*
X013671Y003905D03*
X013671Y003939D03*
X013671Y005705D03*
X013671Y005739D03*
X013638Y005805D03*
X008471Y005805D03*
X008438Y005739D03*
X008071Y004039D03*
X002771Y003939D03*
X002771Y003905D03*
X002738Y004005D03*
X002738Y004039D03*
X002738Y005605D03*
X002738Y005639D03*
X002771Y005705D03*
X002771Y005739D03*
D164*
X002771Y005672D03*
X002771Y003972D03*
X008038Y003972D03*
X013671Y005772D03*
D165*
X013688Y005672D03*
X013688Y003972D03*
X008421Y005672D03*
X008088Y004072D03*
X002721Y004072D03*
X002688Y004172D03*
X002688Y005472D03*
X002721Y005572D03*
D166*
X008054Y004005D03*
D167*
X013704Y004005D03*
X013704Y005639D03*
D168*
X013721Y005605D03*
X013721Y004039D03*
X008421Y005705D03*
X008388Y005605D03*
X008088Y004105D03*
X010988Y008539D03*
D169*
X008371Y005572D03*
X008337Y005472D03*
X008137Y004272D03*
X008104Y004172D03*
X013737Y004072D03*
X013771Y004172D03*
X013771Y005472D03*
X013737Y005572D03*
D170*
X013737Y005539D03*
X013771Y005439D03*
X013771Y004205D03*
X013737Y004139D03*
X013737Y004105D03*
X008404Y005639D03*
X008371Y005539D03*
X008337Y005439D03*
X008104Y004139D03*
X002704Y004139D03*
X002704Y004105D03*
X002671Y004205D03*
X002671Y004239D03*
X002671Y005405D03*
X002671Y005439D03*
X002704Y005505D03*
X002704Y005539D03*
D171*
X002654Y005372D03*
X002654Y004272D03*
X008154Y004372D03*
D172*
X008188Y004472D03*
X008321Y005372D03*
X013788Y005372D03*
X013821Y005272D03*
X013821Y005172D03*
X013821Y004472D03*
X013821Y004372D03*
X013788Y004272D03*
X002621Y004372D03*
X002621Y004472D03*
X002621Y004572D03*
X002621Y005072D03*
X002621Y005172D03*
X002621Y005272D03*
D173*
X002654Y005305D03*
X002654Y005339D03*
X002654Y004339D03*
X002654Y004305D03*
X008154Y004305D03*
X008154Y004339D03*
X008354Y005505D03*
X013754Y005505D03*
D174*
X013838Y005139D03*
X013838Y005105D03*
X013838Y005039D03*
X013838Y005005D03*
X013838Y004939D03*
X013838Y004905D03*
X013838Y004839D03*
X013838Y004805D03*
X013838Y004739D03*
X013838Y004705D03*
X013838Y004639D03*
X013838Y004605D03*
X013838Y004539D03*
X013838Y004505D03*
X008271Y005039D03*
X008271Y005105D03*
X008271Y005139D03*
X008238Y004905D03*
X008238Y004839D03*
X008238Y004805D03*
X008238Y004739D03*
X008238Y004705D03*
X008171Y004405D03*
D175*
X008204Y004572D03*
X008304Y005272D03*
X002604Y004972D03*
X002604Y004872D03*
X002604Y004772D03*
X002604Y004672D03*
D176*
X008238Y004772D03*
X008238Y004872D03*
X008271Y005072D03*
X008271Y005172D03*
X013838Y005072D03*
X013838Y004972D03*
X013838Y004872D03*
X013838Y004772D03*
X013838Y004672D03*
X013838Y004572D03*
D177*
X008254Y004972D03*
X008221Y004672D03*
D178*
X008254Y004939D03*
X008254Y005005D03*
D179*
X006604Y006172D03*
D180*
X006571Y006205D03*
D181*
X008704Y006205D03*
D182*
X006554Y006239D03*
D183*
X006537Y006272D03*
D184*
X008754Y006272D03*
D185*
X006504Y006305D03*
D186*
X006488Y006339D03*
D187*
X006454Y006372D03*
D188*
X008871Y006372D03*
D189*
X006404Y006405D03*
D190*
X006388Y006439D03*
D191*
X008954Y006439D03*
D192*
X006354Y006472D03*
D193*
X008987Y006472D03*
X013087Y006472D03*
D194*
X006288Y006505D03*
D195*
X009054Y006505D03*
D196*
X006237Y006539D03*
D197*
X009121Y006539D03*
X012954Y006539D03*
D198*
X004404Y006705D03*
X004371Y006639D03*
X004371Y006605D03*
D199*
X011038Y006605D03*
D200*
X011054Y006639D03*
D201*
X011038Y006739D03*
D202*
X011038Y006772D03*
D203*
X011021Y006872D03*
D204*
X004504Y006905D03*
D205*
X011038Y006905D03*
D206*
X011021Y006939D03*
D207*
X011021Y006972D03*
D208*
X011021Y007039D03*
D209*
X011021Y007105D03*
D210*
X011021Y007139D03*
D211*
X011021Y007172D03*
D212*
X011038Y007205D03*
D213*
X011021Y007272D03*
D214*
X004854Y007439D03*
X004754Y007305D03*
D215*
X004788Y007339D03*
X004821Y007405D03*
D216*
X011021Y007339D03*
D217*
X011004Y007372D03*
D218*
X011021Y007405D03*
D219*
X011021Y007439D03*
D220*
X011021Y007472D03*
D221*
X011021Y007505D03*
D222*
X011004Y007539D03*
D223*
X010987Y007572D03*
D224*
X011004Y007605D03*
D225*
X011004Y007672D03*
D226*
X011004Y007705D03*
D227*
X005104Y007739D03*
D228*
X010988Y007739D03*
D229*
X005138Y007772D03*
D230*
X011004Y007772D03*
D231*
X011004Y007805D03*
D232*
X011004Y007872D03*
D233*
X005338Y007972D03*
D234*
X005438Y008072D03*
D235*
X010988Y008105D03*
D236*
X005437Y008139D03*
D237*
X010971Y008139D03*
D238*
X005438Y008172D03*
D239*
X010988Y008172D03*
D240*
X010987Y008205D03*
D241*
X005421Y008239D03*
D242*
X010988Y008239D03*
D243*
X010988Y008272D03*
D244*
X010971Y008305D03*
D245*
X010987Y008339D03*
D246*
X005438Y008372D03*
D247*
X010988Y008372D03*
D248*
X010988Y008405D03*
D249*
X010987Y008472D03*
D250*
X010988Y008505D03*
D251*
X010988Y008572D03*
D252*
X010987Y008605D03*
D253*
X011004Y008639D03*
D254*
X011021Y008672D03*
M02*
