G75*
G70*
%OFA0B0*%
%FSLAX24Y24*%
%IPPOS*%
%LPD*%
%AMOC8*
5,1,8,0,0,1.08239X$1,22.5*
%
%ADD10C,0.0000*%
%ADD11R,0.0260X0.0540*%
%ADD12R,0.0540X0.0260*%
%ADD13R,0.2140X0.0800*%
%ADD14R,0.0552X0.0631*%
%ADD15R,0.0631X0.0552*%
%ADD16R,0.0434X0.0611*%
%ADD17R,0.0160X0.0530*%
%ADD18R,0.0512X0.0827*%
%ADD19R,0.0827X0.0631*%
%ADD20R,0.0827X0.1536*%
%ADD21R,0.0434X0.0434*%
D10*
X000625Y000347D02*
X015816Y000347D01*
X015847Y000349D01*
X015878Y000354D01*
X015908Y000363D01*
X015937Y000375D01*
X015964Y000390D01*
X015989Y000408D01*
X016013Y000428D01*
X016033Y000452D01*
X016051Y000477D01*
X016066Y000504D01*
X016078Y000533D01*
X016087Y000563D01*
X016092Y000594D01*
X016094Y000625D01*
X016095Y000625D02*
X016095Y002512D01*
X020032Y002512D01*
X020032Y007237D01*
X016095Y007237D01*
X016095Y009124D01*
X016094Y009124D02*
X016092Y009155D01*
X016087Y009186D01*
X016078Y009216D01*
X016066Y009245D01*
X016051Y009272D01*
X016033Y009297D01*
X016013Y009321D01*
X015989Y009341D01*
X015964Y009359D01*
X015937Y009374D01*
X015908Y009386D01*
X015878Y009395D01*
X015847Y009400D01*
X015816Y009402D01*
X000625Y009402D01*
X000594Y009400D01*
X000563Y009395D01*
X000533Y009386D01*
X000504Y009374D01*
X000477Y009359D01*
X000452Y009341D01*
X000428Y009321D01*
X000408Y009297D01*
X000390Y009272D01*
X000375Y009245D01*
X000363Y009216D01*
X000354Y009186D01*
X000349Y009155D01*
X000347Y009124D01*
X000347Y000625D01*
X000349Y000594D01*
X000354Y000563D01*
X000363Y000533D01*
X000375Y000504D01*
X000390Y000477D01*
X000408Y000452D01*
X000428Y000428D01*
X000452Y000408D01*
X000477Y000390D01*
X000504Y000375D01*
X000533Y000363D01*
X000563Y000354D01*
X000594Y000349D01*
X000625Y000347D01*
D11*
X009874Y001216D03*
X010189Y001216D03*
X010504Y001216D03*
X010819Y001216D03*
X011134Y001216D03*
X011449Y001216D03*
X011764Y001216D03*
X012079Y001216D03*
X012079Y004596D03*
X011764Y004596D03*
X011449Y004596D03*
X011134Y004596D03*
X010819Y004596D03*
X010504Y004596D03*
X010189Y004596D03*
X009874Y004596D03*
D12*
X009287Y004008D03*
X009287Y003693D03*
X009287Y003378D03*
X009287Y003063D03*
X009287Y002748D03*
X009287Y002433D03*
X009287Y002119D03*
X009287Y001804D03*
X012667Y001804D03*
X012667Y002119D03*
X012667Y002433D03*
X012667Y002748D03*
X012667Y003063D03*
X012667Y003378D03*
X012667Y003693D03*
X012667Y004008D03*
D13*
X005593Y001528D03*
X001793Y001528D03*
D14*
X002099Y003103D03*
X001351Y003103D03*
X003122Y003103D03*
X003870Y003103D03*
X014441Y002906D03*
X015189Y002906D03*
X015189Y001922D03*
X014441Y001922D03*
X014441Y000937D03*
X015189Y000937D03*
X009973Y008713D03*
X009225Y008713D03*
X008201Y008713D03*
X007453Y008713D03*
D15*
X010878Y008792D03*
X011863Y008792D03*
X011863Y008044D03*
X010878Y008044D03*
X012945Y005937D03*
X013930Y005937D03*
X013930Y005189D03*
X012945Y005189D03*
D16*
X001764Y006922D03*
X001095Y006922D03*
X001095Y008930D03*
X001764Y008930D03*
D17*
X004012Y008320D03*
X004262Y008320D03*
X004512Y008320D03*
X004762Y008320D03*
X005012Y008320D03*
X005262Y008320D03*
X005512Y008320D03*
X005762Y008320D03*
X006012Y008320D03*
X006262Y008320D03*
X006512Y008320D03*
X006762Y008320D03*
X006762Y005720D03*
X006512Y005720D03*
X006262Y005720D03*
X006012Y005720D03*
X005762Y005720D03*
X005512Y005720D03*
X005262Y005720D03*
X005012Y005720D03*
X004762Y005720D03*
X004512Y005720D03*
X004262Y005720D03*
X004012Y005720D03*
D18*
X015111Y005819D03*
X015111Y004717D03*
D19*
X015367Y006922D03*
X015367Y007827D03*
X015367Y008733D03*
D20*
X012886Y007827D03*
D21*
X008221Y005760D03*
X009205Y004776D03*
X008221Y004087D03*
X013536Y003300D03*
X013536Y002611D03*
X013536Y001922D03*
M02*
